<?xml version="1.0" encoding="UTF-8"?>
<svg width="500px" height="500px" viewBox="0 0 500 500" version="1.1" xmlns="http://www.w3.org/2000/svg" xmlns:xlink="http://www.w3.org/1999/xlink" style="background: #1B2021;">
    <!-- Generator: Sketch 43.2 (39069) - http://www.bohemiancoding.com/sketch -->
    <title>Icon-Original</title>
    <desc>Created with Sketch.</desc>
    <defs></defs>
    <g id="Android" stroke="none" stroke-width="1" fill="none" fill-rule="evenodd">
        <g id="Icon-Original">
            <g id="TruePlayer-White" transform="translate(125.000000, 106.000000)" fill="#FFFFFF">
                <g id="Group-10" transform="translate(0.461347, 0.318528)">
                    <path d="M190.414691,111.805258 C190.414691,111.805258 178.073759,93.8006623 162.911931,90.9763347 C147.750103,88.152007 140.348207,82.6583934 106.49843,92.5435403 C72.6486517,102.428193 53.2530121,112.86438 43.7324847,121.689911 C43.7324847,121.689911 36.3281232,136.517137 37.3859596,143.224915 C37.3859596,143.224915 36.3281232,147.229338 29.2758807,147.168605 C22.2241313,147.108366 21.5189071,152.050446 21.5189071,152.050446 C21.5189071,152.050446 21.5588533,156.956974 22.4327396,160.263709 C23.3071191,163.56995 37.0994314,190.11863 41.2760358,190.701765 C45.4526401,191.285394 51.0860503,188.465016 51.0860503,188.465016 L62.5471773,223.377064 C62.5471773,223.377064 96.5690693,261.698055 135.456515,266.364121 C135.456515,266.364121 157.449156,267.23907 165.022672,264.322902 C172.596189,261.406241 197.501948,195.493741 198.375834,188.057167 C199.24972,180.6201 195.025772,169.974557 193.860919,167.495864 C192.695573,165.016677 195.553458,144.164054 198.494193,140.518597 C198.494193,140.518597 191.239261,123.457091 190.802318,120.102955 C190.365374,116.749312 190.414691,111.805258 190.414691,111.805258" id="Fill-2"></path>
                    <path d="M202.263888,118.743426 C202.263888,118.743426 221.632404,105.481924 225.322749,87.9508477 C228.079534,74.8547563 224.329517,70.517537 224.329517,70.517537 C224.329517,70.517537 211.901789,52.8289505 179.736165,49.9014262 C147.570049,46.9739019 79.9947706,53.6169972 50.7659377,103.215055 L52.811088,106.30009 C52.811088,106.30009 105.189523,74.2518709 151.773777,80.0081668 C161.054134,81.3141714 173.903517,84.3735306 186.259243,94.7247903 C195.493242,102.460584 202.263888,118.743426 202.263888,118.743426" id="Fill-4"></path>
                    <path d="M166.493336,40.6435566 C166.493336,40.6435566 131.628627,42.3421033 114.636668,48.4099639 C106.09803,51.4589541 92.5148189,55.0259022 81.0231157,62.9359947 C68.8128729,69.9834823 49.2766816,84.0305624 36.2048816,113.417889 L36.2048816,119.314414 L33.3317092,124.348334 L31.6081017,100.042328 C31.6081017,100.042328 33.3317092,86.8874785 35.8813661,81.7893695 C37.6049736,77.043314 54.5920012,48.4099639 54.5920012,48.4099639 C54.5920012,48.4099639 55.597069,44.6706924 57.3211697,42.9444949 C59.0447772,41.2187912 63.3545358,38.7736739 63.3545358,38.7736739 C63.3545358,38.7736739 103.531112,23.3015921 117.653351,21.3714703 C119.460796,21.1240947 144.227976,25.5422913 153.708557,32.0140505 C164.338703,37.4795196 166.493336,40.6435566 166.493336,40.6435566" id="Fill-6"></path>
                    <path d="M117.176116,0.0971232962 C117.176116,0.0971232962 99.6170189,3.64037075 96.0780754,5.54827322 C92.5391319,7.4561757 60.1718045,15.7691793 50.7656911,20.9482655 C41.3595777,26.126858 36.3233888,35.1212553 36.3233888,35.1212553 C36.3233888,35.1212553 34.9622567,41.9351927 32.7844453,43.434259 C32.7844453,43.434259 19.3092373,64.3890916 16.4508598,72.8546681 C13.5924824,81.3207385 11.9591238,86.3630522 11.0063313,92.9044321 C10.0535389,99.445812 11.414671,127.928564 12.5035767,130.381582 C12.5035767,130.381582 7.05855502,134.061108 4.33629077,137.876913 C1.61402653,141.693211 0.252894403,150.006215 0.252894403,150.006215 C0.252894403,150.006215 0.389007616,161.726187 2.29459259,166.632222 C4.20017756,171.538751 21.4870487,206.562883 28.8371622,210.923803 C28.8371622,210.923803 32.7844453,212.286591 37.1400681,213.785657 C37.1400681,213.785657 40.6790116,230.957273 47.3490522,239.270276 C54.0185996,247.58328 99.2086793,282.062297 117.176116,285.06043 C135.143554,288.058562 132.556909,288.194841 143.174233,288.194841 C153.791064,288.194841 170.397369,287.24089 178.564162,281.108346 C186.730954,274.975802 194.625521,258.349301 194.625521,258.349301 C194.625521,258.349301 219.486402,205.428214 220.010142,183.763844 C220.010142,183.763844 218.264835,165.593838 214.600628,163.323019 C214.600628,163.323019 219.137242,148.123001 219.311822,142.008233 C219.486402,135.892971 218.264835,134.146035 218.264835,134.146035 C218.264835,134.146035 243.043851,113.879509 246.708551,91.5164626 C250.372758,69.1534163 242.694691,59.1951925 242.694691,59.1951925 C242.694691,59.1951925 231.998954,41.3362575 208.492794,34.735626 C201.552993,32.7867411 185.086253,28.7675056 185.086253,28.7675056 C185.086253,28.7675056 168.76401,12.0896531 150.66046,7.31989695 C132.556909,2.55014076 127.792947,0.233402044 117.176116,0.0971232962 M118.154553,10.9836227 C123.980298,11.1702653 127.756946,12.2343259 136.180184,14.6083412 C139.473039,15.5366167 143.205303,16.5883331 147.899236,17.8252109 C162.804126,21.7521126 177.206482,36.237161 177.33717,36.3699834 L179.506104,38.5859944 L182.516376,39.3212083 C182.679614,39.3607094 198.882018,43.3187183 205.562908,45.1945261 C223.674842,50.2807848 232.698753,63.7190544 233.389676,64.7845962 L233.369949,65.0058023 L233.991829,65.703984 C234.713821,66.9265426 238.533868,74.304358 236.001965,89.7576768 C233.558831,104.666868 217.405743,120.78973 211.400981,125.733291 L203.600116,132.113704 L208.396627,138.973562 C208.452354,139.518677 208.503644,140.403501 208.466656,141.698149 C208.384298,144.581728 206.190212,153.5544 204.205228,160.212308 L201.826699,168.181159 L206.834777,171.28545 C207.650963,173.910298 208.632359,179.296271 209.140318,184.114416 C208.405504,198.622177 193.926214,234.303509 184.820438,253.699036 C182.097187,259.430643 176.162454,269.333566 172.054399,272.418107 C170.51918,273.571045 163.899442,277.332042 143.174233,277.332042 C136.059852,277.332042 136.059852,277.332042 128.922785,276.066526 C126.56201,275.647814 123.328335,275.074555 118.95989,274.345266 C114.281245,273.564626 102.701265,268.13767 84.2298148,255.246985 C68.8786116,244.533302 57.7336026,234.86788 55.8073048,232.467202 C52.1731806,227.937415 48.9449303,217.251383 47.7657756,211.590384 L46.5160985,205.52598 L40.6671757,203.512905 C38.1717668,202.653757 35.8100053,201.839541 34.2501282,201.301832 C32.9373261,199.846217 29.3066541,195.236934 22.3407153,182.491909 C17.222168,173.126695 13.0573996,164.370785 12.4083961,162.700383 C11.8284354,161.146015 11.2465021,155.700297 11.1212385,150.875733 C11.6055254,148.427653 12.5307007,145.21424 13.1866086,144.161536 C14.2123893,142.745915 16.9676955,140.482997 18.5842865,139.377954 L26.1291997,134.330209 L22.8333859,126.90598 C22.0068434,121.422735 21.090545,98.9441482 21.7420144,94.4721314 C22.5665843,88.8101445 24.0194449,84.3588658 26.7288869,76.3337263 C28.3331487,71.5832269 35.9515433,58.6673592 41.2436842,50.351393 C43.5546498,47.8129544 45.3122857,44.1329344 46.493413,39.3582406 C47.8920256,37.3372663 51.2090454,33.1007748 55.9937207,30.4665461 C60.8671655,27.7834348 76.475307,23.0946558 85.8005415,20.293535 C95.2466012,17.4558757 98.8121756,16.3597206 101.012179,15.2235706 C103.117989,14.3555342 111.262096,12.4071431 118.154553,10.9836227" id="Fill-8"></path>
                </g>
            </g>
            <circle id="Oval-1" stroke="#FFFFFF" stroke-width="15" stroke-linecap="square" cx="250" cy="250" r="211"></circle>
        </g>
    </g>
</svg>